<svg xmlns="http://www.w3.org/2000/svg" viewBox="0 0 900 1125" width="900" height="1125"><defs><linearGradient id="bg" x1="0" y1="0" x2="1" y2="1"><stop stop-color="#020817"/><stop offset=".55" stop-color="#061b3d"/><stop offset="1" stop-color="#00111f"/></linearGradient><radialGradient id="glow"><stop stop-color="#22d3ee" stop-opacity=".9"/><stop offset="1" stop-color="#0ea5e9" stop-opacity="0"/></radialGradient><filter id="blur"><feGaussianBlur stdDeviation="24"/></filter></defs><rect width="900" height="1125" fill="url(#bg)"/><circle cx="450" cy="510" r="310" fill="url(#glow)" filter="url(#blur)" opacity=".7"/><g fill="none" stroke="#38bdf8" stroke-opacity=".48" stroke-width="2"><path d="M110 520 Q450 190 790 520 Q450 850 110 520Z"/><path d="M150 470 Q450 260 750 470 Q450 680 150 470Z"/><path d="M210 410 Q450 300 690 410 Q450 520 210 410Z"/></g><g fill="#7dd3fc"><circle cx="180" cy="470" r="5"/><circle cx="260" cy="350" r="4"/><circle cx="365" cy="300" r="5"/><circle cx="450" cy="265" r="6"/><circle cx="535" cy="300" r="5"/><circle cx="640" cy="350" r="4"/><circle cx="720" cy="470" r="5"/><circle cx="300" cy="570" r="4"/><circle cx="600" cy="570" r="4"/></g><g text-anchor="middle" font-family="Arial,Helvetica,sans-serif" font-weight="800"><text x="450" y="95" font-size="30" fill="#f8fafc" letter-spacing="7">ÁREA DE MEMBROS</text><text x="450" y="190" font-size="66" fill="#f8fafc">DESBLOQUEIE</text><text x="450" y="265" font-size="66" fill="#22d3ee">O PODER</text><text x="450" y="340" font-size="55" fill="#f8fafc">DA SUA MENTE</text><text x="450" y="395" font-size="25" fill="#cbd5e1" letter-spacing="4">OS 7 NÍVEIS DA VIDA</text><text x="450" y="925" font-size="28" fill="#f8fafc">PROTOCOLO DE EVOLUÇÃO</text><text x="450" y="970" font-size="20" fill="#67e8f9" letter-spacing="3">DIAGNÓSTICO • MISSÃO • AÇÃO • EVOLUÇÃO</text></g><rect x="155" y="1010" width="590" height="66" rx="33" fill="#061b3d" stroke="#22d3ee" stroke-width="3"/><text x="450" y="1053" text-anchor="middle" font-family="Arial,Helvetica,sans-serif" font-size="24" font-weight="800" fill="#f8fafc">CLIQUE PARA COMEÇAR</text></svg>